HIERARCHY
ROOT Pelvis
{
	OFFSET 0.000000 0.000000 0.000000
	CHANNELS 6 Xposition Yposition Zposition Xrotation Yrotation Zrotation
	JOINT LeftUpLeg_virtual
	{
		OFFSET 0.000000 0.000000 0.000000
		CHANNELS 3 Xrotation Yrotation Zrotation
		JOINT LeftUpLeg
		{
			OFFSET 8.479700 -4.795502 -0.379100
			CHANNELS 3 Xrotation Yrotation Zrotation
			JOINT LeftLeg
			{
				OFFSET 0.024144 -32.555107 0.112900
				CHANNELS 3 Xrotation Yrotation Zrotation
				JOINT LeftFoot
				{
					OFFSET -0.024144 -32.638630 -3.012600
					CHANNELS 3 Xrotation Yrotation Zrotation
					JOINT LeftToeBase
					{
						OFFSET 0.970200 -13.225400 11.864200
						CHANNELS 3 Xrotation Yrotation Zrotation
						End Site
						{
							OFFSET 0 0 0
						}
					}
				}
			}
		}
	}
	JOINT RightUpLeg_virtual
	{
		OFFSET 0.000000 0.000000 0.000000
		CHANNELS 3 Xrotation Yrotation Zrotation
		JOINT RightUpLeg
		{
			OFFSET -8.479700 -4.795502 -0.379100
			CHANNELS 3 Xrotation Yrotation Zrotation
			JOINT RightLeg
			{
				OFFSET -0.023144 -32.555092 0.112900
				CHANNELS 3 Xrotation Yrotation Zrotation
				JOINT RightFoot
				{
					OFFSET 0.023144 -32.638641 -3.012700
					CHANNELS 3 Xrotation Yrotation Zrotation
					JOINT RightToeBase
					{
						OFFSET -0.970200 -13.225400 11.864200
						CHANNELS 3 Xrotation Yrotation Zrotation
						End Site
						{
							OFFSET 0 0 0
						}
					}
				}
			}
		}
	}
	JOINT Hips_virtual
	{
		OFFSET 0.000000 0.000000 0.000000
		CHANNELS 3 Xrotation Yrotation Zrotation
		JOINT Hips
		{
			OFFSET -0.000000 -0.000000 -0.000000
			CHANNELS 3 Xrotation Yrotation Zrotation
			JOINT Spine
			{
				OFFSET 0.000000 7.722000 1.166200
				CHANNELS 3 Xrotation Yrotation Zrotation
				JOINT Spine1
				{
					OFFSET 0.000000 12.024101 0.248800
					CHANNELS 3 Xrotation Yrotation Zrotation
					JOINT Spine2
					{
						OFFSET 0.000000 11.502998 -0.491200
						CHANNELS 3 Xrotation Yrotation Zrotation
						JOINT Neck_virtual
						{
							OFFSET 0.000000 0.000000 0.000000
							CHANNELS 3 Xrotation Yrotation Zrotation
							JOINT Neck
							{
								OFFSET 0.000000 18.430702 -3.123100
								CHANNELS 3 Xrotation Yrotation Zrotation
								JOINT Head
								{
									OFFSET 0.000000 9.051102 1.034000
									CHANNELS 3 Xrotation Yrotation Zrotation
									End Site
									{
										OFFSET 0 0 0
									}
								}
							}
						}
						JOINT LeftShoulder_virtual
						{
							OFFSET 0.000000 0.000000 0.000000
							CHANNELS 3 Xrotation Yrotation Zrotation
							JOINT LeftShoulder
							{
								OFFSET 6.197800 13.665199 -4.064700
								CHANNELS 3 Xrotation Yrotation Zrotation
								JOINT LeftArm
								{
									OFFSET 7.778100 -0.187103 -1.709300
									CHANNELS 3 Xrotation Yrotation Zrotation
									JOINT LeftForeArm
									{
										OFFSET 22.049376 0.000000 0.000000
										CHANNELS 3 Xrotation Yrotation Zrotation
										JOINT LeftHand
										{
											OFFSET 23.009392 0.000000 0.000000
											CHANNELS 3 Xrotation Yrotation Zrotation
											End Site
											{
												OFFSET 0 0 0
											}
										}
									}
								}
							}
						}
						JOINT RightShoulder_virtual
						{
							OFFSET 0.000000 0.000000 0.000000
							CHANNELS 3 Xrotation Yrotation Zrotation
							JOINT RightShoulder
							{
								OFFSET -6.197800 13.665199 -4.064700
								CHANNELS 3 Xrotation Yrotation Zrotation
								JOINT RightArm
								{
									OFFSET -7.778100 -0.187103 -1.709300
									CHANNELS 3 Xrotation Yrotation Zrotation
									JOINT RightForeArm
									{
										OFFSET -22.049376 0.000000 0.000000
										CHANNELS 3 Xrotation Yrotation Zrotation
										JOINT RightHand
										{
											OFFSET -23.009392 0.000000 0.000000
											CHANNELS 3 Xrotation Yrotation Zrotation
											End Site
											{
												OFFSET 0 0 0
											}
										}
									}
								}
							}
						}
					}
				}
			}
		}
	}
}
MOTION
Frames: 6
Frame Time: 0.03333333
0.411283 87.950493 -4.448975 0.000000 0.000000 0.000000 -92.610296 1.439677 4.412425 -0.490550 14.963459 12.589615 0.736472 7.721146 4.123984 37.800261 28.272357 -29.558829 0.000000 0.000000 0.000000 -92.610296 1.439677 4.412425 -3.815659 -18.809077 -17.174646 1.785233 -6.531837 -7.313288 36.876956 -29.640473 30.481082 0.000000 0.000000 0.000000 -92.610296 1.439677 4.412425 0.000000 0.000000 0.000000 4.271935 -0.733133 0.326921 5.662836 -1.787561 -1.408119 0.000000 0.000000 0.000000 5.682625 -1.863436 -1.213449 -7.406065 -0.581396 1.811092 0.000000 0.000000 0.000000 5.682625 -1.863436 -1.213449 0.833463 0.643753 -7.065390 35.730902 -29.399962 -39.106047 0.001662 -86.008747 0.001619 0.000000 0.000000 0.000000 5.682625 -1.863436 -1.213449 1.050852 -2.047990 18.147314 -39.666085 52.653406 55.025886 179.999650 79.735150 -179.999677 0.000000 0.000000 0.000000 
0.400892 87.951385 -4.547371 0.000000 0.000000 0.000000 -92.823213 1.312021 4.399125 -0.040654 15.131000 12.600558 0.853665 7.709690 4.207483 37.811217 28.960286 -30.108987 0.000000 0.000000 0.000000 -92.823213 1.312021 4.399125 -3.723967 -19.051868 -17.292676 1.803380 -6.396368 -7.209616 37.221990 -29.631874 30.465912 0.000000 0.000000 0.000000 -92.823213 1.312021 4.399125 0.000000 0.000000 0.000000 4.234030 -0.725170 0.285607 5.577431 -1.781750 -1.434906 0.000000 0.000000 0.000000 5.572900 -1.863084 -1.240884 -7.427408 -0.598162 1.870912 0.000000 0.000000 0.000000 5.572900 -1.863084 -1.240884 0.795799 0.368579 -6.754030 35.724328 -29.362625 -39.579068 -0.000735 -85.982342 -0.000682 0.000000 0.000000 0.000000 5.572900 -1.863084 -1.240884 1.046867 -1.901961 17.705032 -41.695607 52.153207 56.287381 -179.999609 81.047837 179.999623 0.000000 0.000000 0.000000 
0.388065 87.948616 -4.599747 0.000000 0.000000 0.000000 -92.969420 1.266718 4.381178 0.286942 15.187556 12.622396 1.007823 7.680586 4.290887 37.859291 29.323710 -30.415912 0.000000 0.000000 0.000000 -92.969420 1.266718 4.381178 -3.627380 -19.235040 -17.405361 1.806304 -6.318405 -7.086706 37.579533 -29.623797 30.459007 0.000000 0.000000 0.000000 -92.969420 1.266718 4.381178 0.000000 0.000000 0.000000 4.228039 -0.709391 0.254063 5.498821 -1.756072 -1.456300 0.000000 0.000000 0.000000 5.557740 -1.836371 -1.256272 -7.364453 -0.607704 1.904430 0.000000 0.000000 0.000000 5.557740 -1.836371 -1.256272 0.752572 0.149308 -6.556121 35.791667 -29.405593 -39.728478 -0.000491 -85.965703 -0.000450 0.000000 0.000000 0.000000 5.557740 -1.836371 -1.256272 1.031407 -1.759338 17.391863 -42.645133 51.582087 56.777074 -179.999336 82.161705 179.999336 0.000000 0.000000 0.000000 
0.373313 87.953293 -4.624269 0.000000 0.000000 0.000000 -93.004951 1.197946 4.336766 0.436601 15.175693 12.664051 1.200832 7.641488 4.377351 37.944938 29.321947 -30.405140 0.000000 0.000000 0.000000 -93.004951 1.197946 4.336766 -3.590980 -19.319279 -17.410277 1.802981 -6.192657 -7.066189 37.945516 -29.620024 30.452958 0.000000 0.000000 0.000000 -93.004951 1.197946 4.336766 0.000000 0.000000 0.000000 4.239197 -0.691776 0.243945 5.508384 -1.714588 -1.460458 0.000000 0.000000 0.000000 5.567306 -1.797902 -1.270685 -7.160142 -0.610770 1.930708 0.000000 0.000000 0.000000 5.567306 -1.797902 -1.270685 0.749817 0.216470 -6.485455 35.680375 -29.527430 -39.791757 0.000798 -85.903467 0.000813 0.000000 0.000000 0.000000 5.567306 -1.797902 -1.270685 1.021785 -1.623932 17.128497 -43.055375 51.175496 56.795291 -179.999623 83.129358 179.999623 0.000000 0.000000 0.000000 
0.356111 87.961510 -4.616693 0.000000 0.000000 0.000000 -92.929266 1.126909 4.275111 0.389384 15.120966 12.715470 1.406103 7.596834 4.461033 38.043689 29.318710 -30.389274 0.000000 0.000000 0.000000 -92.929266 1.126909 4.275111 -3.616195 -19.327086 -17.354377 1.727159 -6.150885 -7.077577 38.387613 -29.617063 30.452067 0.000000 0.000000 0.000000 -92.929266 1.126909 4.275111 0.000000 0.000000 0.000000 4.265356 -0.673145 0.249868 5.555462 -1.676086 -1.446811 0.000000 0.000000 0.000000 5.614014 -1.763747 -1.275981 -6.848932 -0.568000 1.851870 0.000000 0.000000 0.000000 5.614014 -1.763747 -1.275981 0.758827 0.358508 -6.445955 35.602054 -29.770640 -39.668694 0.001337 -85.806512 0.001308 0.000000 0.000000 0.000000 5.614014 -1.763747 -1.275981 1.056735 -1.497104 16.955111 -42.526254 51.008717 56.077055 -179.999868 83.699884 179.999868 0.000000 0.000000 0.000000 
0.332911 87.969551 -4.583916 0.000000 0.000000 0.000000 -92.789971 1.082268 4.232413 0.225197 14.996800 12.734035 1.519227 7.550684 4.540617 38.178292 29.316364 -30.375344 0.000000 0.000000 0.000000 -92.789971 1.082268 4.232413 -3.708190 -19.309093 -17.281378 1.642494 -6.156038 -7.126610 38.921027 -29.611824 30.446340 0.000000 0.000000 0.000000 -92.789971 1.082268 4.232413 0.000000 0.000000 0.000000 4.306385 -0.653488 0.257130 5.642405 -1.643771 -1.447738 0.000000 0.000000 0.000000 5.701237 -1.728347 -1.276003 -6.363362 -0.514181 1.761036 0.000000 0.000000 0.000000 5.701237 -1.728347 -1.276003 0.760050 0.562505 -6.430589 35.527099 -30.057771 -39.442881 0.000588 -85.720069 0.000664 0.000000 0.000000 0.000000 5.701237 -1.728347 -1.276003 1.027784 -1.317203 16.922878 -40.688161 51.045282 54.314832 -179.995934 83.722990 179.995975 0.000000 0.000000 0.000000 
